M48
METRIC
T01C.3302
T02C.7
T03C.89
T04C.9
T05C.92
T06C1.0201
T07C1.3
T08C2.3
T09C3.683
;LEADER: 12 
;HEADER: 
;CODE  : ASCII 
;FILE  : pcb_semaforo_aux1-1-4.drl for  ... layers TOP and BOTTOM
;DESIGN: pcb_semaforo_aux.brd
;T01 Holesize 1. = 0.330200 Tolerance = +0.000000/-0.000000 PLATED MM Quantity = 21
;T02 Holesize 2. = 0.700000 Tolerance = +0.000000/-0.000000 PLATED MM Quantity = 6
;T03 Holesize 3. = 0.890000 Tolerance = +0.000000/-0.000000 PLATED MM Quantity = 26
;T04 Holesize 4. = 0.900000 Tolerance = +0.000000/-0.000000 PLATED MM Quantity = 4
;T05 Holesize 5. = 0.920000 Tolerance = +0.000000/-0.000000 PLATED MM Quantity = 8
;T06 Holesize 6. = 1.020100 Tolerance = +0.000000/-0.000000 PLATED MM Quantity = 13
;T07 Holesize 7. = 1.300000 Tolerance = +0.000000/-0.000000 PLATED MM Quantity = 18
;T08 Holesize 8. = 2.300000 Tolerance = +0.000000/-0.000000 PLATED MM Quantity = 4
;T09 Holesize 9. = 3.683000 Tolerance = +0.000000/-0.000000 NON_PLATED MM Quantity = 4
%
G90
T01
X2714150Y2728000
X2806700Y2686050
X2354000Y2836000
X2758000Y2390000
X2850000Y2416000
X2301000Y2519000
X2470000Y2476000
X2367000Y2623000
X2399550Y2232650
X2540000Y2203450
X2888234Y2621534
X2774950Y2749550
X2914650Y2698750
X2619150Y2727750
X2774950Y2679700
X2736650Y2434050
X2866250Y2188350
X2319000Y2589000
X2350000Y2620000
X2298000Y2571000
X2417000Y2471000
T02
X2363500Y2566000
X2338500Y2566000
X2447500Y2511000
X2422500Y2511000
X2346500Y2484000
X2321500Y2484000
T03
X2701000Y2509000
X2701000Y2534400
X2726400Y2509000
X2726400Y2534400
X2751800Y2509000
X2751800Y2534400
X2777200Y2509000
X2777200Y2534400
X2802600Y2509000
X2802600Y2534400
X2828000Y2509000
X2828000Y2534400
X2853400Y2509000
X2853400Y2534400
X2878800Y2509000
X2878800Y2534400
X2904200Y2509000
X2904200Y2534400
X2929600Y2509000
X2929600Y2534400
X2955000Y2509000
X2955000Y2534400
X2980400Y2509000
X2980400Y2534400
X3005800Y2509000
X3005800Y2534400
T04
X2460000Y2611000
X2410000Y2611000
X2586000Y2543000
X2536000Y2543000
T05
X2931600Y2629900
X2931600Y2654900
X2931600Y2674900
X2931600Y2699900
X2689150Y2753000
X2664150Y2753000
X2644150Y2753000
X2619150Y2753000
T06
X2501900Y2654300
R12X0025400
T07
X2903450Y2377750
X2903450Y2257750
X2883450Y2317750
X3025450Y2377750
X3025450Y2257750
X2690900Y2238700
X2690900Y2358700
X2710900Y2298700
X2568900Y2238700
X2568900Y2358700
X2338500Y2362400
X2338500Y2413200
X2965450Y2188350
X2914650Y2188350
X2438400Y2237600
X2489200Y2237600
X2338450Y2283450
X2338450Y2232650
T08
X2958700Y2599200
X2958700Y2730600
X2719850Y2780100
X2588450Y2780100
T09
X2311000Y2150000
X2310000Y2889000
X3048000Y2889250
X3048000Y2152650
M30
