G04 ================== begin FILE IDENTIFICATION RECORD ==================*
G04 Layout Name:  pcb_semaforo_aux.brd*
G04 Film Name:    SAP_V19.SMBOT*
G04 File Format:  Gerber RS274X*
G04 File Origin:  Cadence Allegro 24.1-S005*
G04 Origin Date:  Fri Sep 26 00:04:36 2025*
G04 *
G04 Layer:  CAVITY/POWERPLANE_1*
G04 Layer:  ANTI ETCH/POWERPLANE_1*
G04 Layer:  VIA CLASS/SOLDERMASK_BOTTOM*
G04 Layer:  PIN/SOLDERMASK_BOTTOM*
G04 Layer:  DRC ERROR CLASS/SOLDERMASK_BOTTOM*
G04 *
G04 Offset:    (0.0000 0.0000)*
G04 Mirror:    No*
G04 Mode:      Positive*
G04 Rotation:  0*
G04 FullContactRelief:  No*
G04 UndefLineWidth:     0.1000*
G04 ================== end FILE IDENTIFICATION RECORD ====================*
%FSLAX25Y25*MOMM*%
%IR0*IPPOS*OFA0.00000B0.00000*MIA0B0*SFA1.00000B1.00000*%
%ADD14C,1.25*%
%ADD11C,2.1501*%
%ADD18C,1.57*%
%ADD10C,4.064*%
%ADD16C,1.608*%
%ADD13R,1.25X1.25*%
%ADD19C,3.5161*%
%ADD15C,1.1176*%
%ADD12R,2.1501X2.1501*%
%ADD17R,1.57X1.57*%
%ADD20C,1.6279*%
%ADD21C,1.4399*%
%ADD23R,1.6279X1.6279*%
%ADD22R,1.4399X1.4399*%
%LPD*%
G75*
G54D10*
X23110000Y21500000D03*
X23100000Y28890000D03*
X30480000Y21526500D03*
Y28892500D03*
G54D20*
X26191500Y27530000D03*
X26441500D03*
X26641500D03*
X29316000Y26749000D03*
Y26549000D03*
Y26999000D03*
G54D11*
X23384500Y22326500D03*
X23385000Y24132000D03*
X24892000Y22376000D03*
X25689000Y22387000D03*
Y23587000D03*
X26909000Y22387000D03*
X27109000Y22987000D03*
X26909000Y23587000D03*
X29034500Y22577500D03*
X28834500Y23177500D03*
X29034500Y23777500D03*
X29146500Y21883500D03*
X30254500Y22577500D03*
Y23777500D03*
G54D21*
X27264000Y25090000D03*
Y25344000D03*
X27010000D03*
X28026000Y25090000D03*
X27772000D03*
X27518000D03*
X27772000Y25344000D03*
X27518000D03*
X28026000D03*
X28788000Y25090000D03*
X28534000D03*
X28280000D03*
X28788000Y25344000D03*
X28534000D03*
X28280000D03*
X29550000Y25090000D03*
X29296000D03*
X29042000D03*
X29550000Y25344000D03*
X29296000D03*
X29042000D03*
X30058000Y25090000D03*
X29804000D03*
X30058000Y25344000D03*
X29804000D03*
G54D12*
X23384500Y22834500D03*
X23385000Y23624000D03*
X24384000Y22376000D03*
X29654500Y21883500D03*
G54D22*
X27010000Y25090000D03*
G54D13*
X23215000Y24840000D03*
X23385000Y25660000D03*
X24225000Y25110000D03*
G54D23*
X26891500Y27530000D03*
X29316000Y26299000D03*
G54D14*
X23465000Y24840000D03*
X23635000Y25660000D03*
X24475000Y25110000D03*
G54D15*
X23010000Y25190000D03*
X22980000Y25710000D03*
X23190000Y25890000D03*
X23500000Y26200000D03*
X23670000Y26230000D03*
X23540000Y28360000D03*
X23995500Y22326500D03*
X24170000Y24710000D03*
X24700000Y24760000D03*
X25400000Y22034500D03*
X26191500Y27277500D03*
X27366500Y24340500D03*
X27141500Y27280000D03*
X27580000Y23900000D03*
X27749500Y26797000D03*
X28067000Y26860500D03*
X27749500Y27495500D03*
X28662500Y21883500D03*
X28500000Y24160000D03*
X28882340Y26215340D03*
X29146500Y26987500D03*
G54D16*
X24100000Y26110000D03*
X24600000D03*
X25360000Y25430000D03*
X25860000D03*
G54D17*
X25019000Y26543000D03*
G54D18*
X25781000D03*
X25527000D03*
X25273000D03*
X26543000D03*
X26289000D03*
X26035000D03*
X27305000D03*
X27051000D03*
X26797000D03*
X28067000D03*
X27813000D03*
X27559000D03*
G54D19*
X25884500Y27801000D03*
X27198500D03*
X29587000Y25992000D03*
Y27306000D03*
M02*
