G04 ================== begin FILE IDENTIFICATION RECORD ==================*
G04 Layout Name:  pcb_semaforo_aux.brd*
G04 Film Name:    SAP_V12.SMTOP*
G04 File Format:  Gerber RS274X*
G04 File Origin:  Cadence Allegro 24.1-S005*
G04 Origin Date:  Fri Sep 26 00:04:36 2025*
G04 *
G04 Layer:  VIA CLASS/SOLDERMASK_TOP*
G04 Layer:  PIN/SOLDERMASK_TOP*
G04 Layer:  DRC ERROR CLASS/SOLDERMASK_TOP*
G04 *
G04 Offset:    (0.0000 0.0000)*
G04 Mirror:    No*
G04 Mode:      Positive*
G04 Rotation:  0*
G04 FullContactRelief:  No*
G04 UndefLineWidth:     0.1000*
G04 ================== end FILE IDENTIFICATION RECORD ====================*
%FSLAX25Y25*MOMM*%
%IR0*IPPOS*OFA0.00000B0.00000*MIA0B0*SFA1.00000B1.00000*%
%ADD19R,10.78X7.0401*%
%ADD16R,.5588X.5588*%
%ADD31R,1.172X1.002*%
%ADD14C,1.25*%
%ADD11C,2.1501*%
%ADD24C,1.57*%
%ADD10C,4.064*%
%ADD21C,1.608*%
%ADD13R,1.25X1.25*%
%ADD25C,3.5161*%
%ADD15C,1.1176*%
%ADD12R,2.1501X2.1501*%
%ADD30R,1.9304X1.2192*%
%ADD23R,1.57X1.57*%
%ADD26C,1.6279*%
%ADD27C,1.4399*%
%ADD22R,3.1999X3.7*%
%ADD20R,2.5499X1.7501*%
%ADD29R,1.6279X1.6279*%
%ADD17R,.8128X.9652*%
%ADD28R,1.4399X1.4399*%
%ADD18R,1.0899X2.9901*%
%LPD*%
G75*
G54D10*
X23110000Y21500000D03*
X23100000Y28890000D03*
X30480000Y21526500D03*
Y28892500D03*
G54D20*
X24175000Y24420000D03*
X24605000D03*
G54D11*
X23384500Y22326500D03*
X23385000Y24132000D03*
X24892000Y22376000D03*
X25689000Y22387000D03*
Y23587000D03*
X26909000Y22387000D03*
X27109000Y22987000D03*
X26909000Y23587000D03*
X29034500Y22577500D03*
X28834500Y23177500D03*
X29034500Y23777500D03*
X29146500Y21883500D03*
X30254500Y22577500D03*
Y23777500D03*
G54D30*
X27940000Y23050500D03*
Y23251160D03*
X28384500Y23548340D03*
Y23749000D03*
G54D12*
X23384500Y22834500D03*
X23385000Y23624000D03*
X24384000Y22376000D03*
X29654500Y21883500D03*
G54D21*
X24100000Y26110000D03*
X24600000D03*
X25360000Y25430000D03*
X25860000D03*
G54D22*
X25000000Y24370000D03*
X25500000D03*
G54D13*
X23215000Y24840000D03*
X23385000Y25660000D03*
X24225000Y25110000D03*
G54D31*
X28007500Y24068000D03*
X27830500Y23973000D03*
Y24163000D03*
X28788500Y24404000D03*
X28611500Y24309000D03*
Y24499000D03*
G54D23*
X25019000Y26543000D03*
G54D14*
X23465000Y24840000D03*
X23635000Y25660000D03*
X24475000Y25110000D03*
G54D15*
X23010000Y25190000D03*
X22980000Y25710000D03*
X23190000Y25890000D03*
X23500000Y26200000D03*
X23670000Y26230000D03*
X23540000Y28360000D03*
X23995500Y22326500D03*
X24170000Y24710000D03*
X24700000Y24760000D03*
X25400000Y22034500D03*
X26191500Y27277500D03*
X27366500Y24340500D03*
X27141500Y27280000D03*
X27580000Y23900000D03*
X27749500Y26797000D03*
X28067000Y26860500D03*
X27749500Y27495500D03*
X28662500Y21883500D03*
X28500000Y24160000D03*
X28882340Y26215340D03*
X29146500Y26987500D03*
G54D24*
X25781000Y26543000D03*
X25527000D03*
X25273000D03*
X26543000D03*
X26289000D03*
X26035000D03*
X27305000D03*
X27051000D03*
X26797000D03*
X28067000D03*
X27813000D03*
X27559000D03*
G54D25*
X25884500Y27801000D03*
X27198500D03*
X29587000Y25992000D03*
Y27306000D03*
G54D16*
X23010000Y25460000D03*
Y25353320D03*
X25082500Y23050500D03*
Y22943820D03*
X25880000Y27256000D03*
Y27116000D03*
X25986680Y27256000D03*
Y27116000D03*
X27370000Y26840000D03*
Y26946680D03*
X26850000Y26840000D03*
Y26946680D03*
X26990000Y26840000D03*
Y26946680D03*
X27508000Y24366000D03*
X27614680D03*
X27492000Y24172000D03*
X27598680D03*
X27620500Y24531000D03*
Y24637680D03*
X28081000Y24637000D03*
Y24530320D03*
X27880000Y24640000D03*
X27773320D03*
X27510000Y26840000D03*
Y26946680D03*
X27630000Y27776000D03*
X27736680D03*
X27630000Y27616000D03*
X27736680D03*
X28382500Y24531000D03*
X28275820D03*
X28829000Y25971500D03*
Y26078180D03*
X28976320Y27305000D03*
Y27495500D03*
X29019500Y25971500D03*
Y26078180D03*
X29083000Y27305000D03*
Y27495500D03*
G54D17*
X23110000Y26060000D03*
X22967760D03*
G54D26*
X26191500Y27530000D03*
X26441500D03*
X26641500D03*
X29316000Y26749000D03*
Y26549000D03*
Y26999000D03*
G54D18*
X23667000Y26831000D03*
X23540000D03*
X23413000D03*
X23286000D03*
X23159000D03*
X23921000D03*
X23794000D03*
G54D27*
X27264000Y25090000D03*
Y25344000D03*
X27010000D03*
X28026000Y25090000D03*
X27772000D03*
X27518000D03*
X27772000Y25344000D03*
X27518000D03*
X28026000D03*
X28788000Y25090000D03*
X28534000D03*
X28280000D03*
X28788000Y25344000D03*
X28534000D03*
X28280000D03*
X29550000Y25090000D03*
X29296000D03*
X29042000D03*
X29550000Y25344000D03*
X29296000D03*
X29042000D03*
X30058000Y25090000D03*
X29804000D03*
X30058000Y25344000D03*
X29804000D03*
G54D28*
X27010000Y25090000D03*
G54D19*
X23540000Y27866000D03*
G54D29*
X26891500Y27530000D03*
X29316000Y26299000D03*
M02*
