G04 ================== begin FILE IDENTIFICATION RECORD ==================*
G04 Layout Name:  pcb_semaforo_aux.brd*
G04 Film Name:    SAP_V14.TOP*
G04 File Format:  Gerber RS274X*
G04 File Origin:  Cadence Allegro 24.1-S005*
G04 Origin Date:  Fri Sep 26 00:04:36 2025*
G04 *
G04 Layer:  VIA CLASS/TOP*
G04 Layer:  PIN/TOP*
G04 Layer:  ETCH/TOP*
G04 *
G04 Offset:    (0.0000 0.0000)*
G04 Mirror:    No*
G04 Mode:      Positive*
G04 Rotation:  0*
G04 FullContactRelief:  No*
G04 UndefLineWidth:     0.1000*
G04 ================== end FILE IDENTIFICATION RECORD ====================*
%FSLAX25Y25*MOMM*%
%IR0*IPPOS*OFA0.00000B0.00000*MIA0B0*SFA1.00000B1.00000*%
%ADD19R,10.5801X6.84*%
%ADD15C,.6096*%
%ADD16R,.5588X.5588*%
%ADD18R,.89X2.7899*%
%ADD22R,3.X3.5001*%
%ADD14C,1.05*%
%ADD27C,1.24*%
%ADD24C,1.3701*%
%ADD25C,3.316*%
%ADD21C,1.408*%
%ADD13R,1.05X1.05*%
%ADD28R,1.24X1.24*%
%ADD26C,1.428*%
%ADD11C,1.95*%
%ADD30R,1.9304X1.2192*%
%ADD23R,1.3701X1.3701*%
%ADD29R,1.428X1.428*%
%ADD12R,1.95X1.95*%
%ADD10C,3.937*%
%ADD20R,2.35X1.5499*%
%ADD31R,.9721X.8019*%
%ADD17R,.8128X.9652*%
%ADD32C,.5*%
%ADD33C,.15*%
%ADD34C,.26*%
%ADD35C,.127*%
%ADD36C,1.*%
%ADD37C,2.*%
%ADD38C,1.5*%
G75*
%LPD*%
G75*
G54D10*
X23110000Y21500000D03*
X23100000Y28890000D03*
X30480000Y21526500D03*
Y28892500D03*
G54D20*
X24175000Y24420000D03*
X24605000D03*
G54D11*
X23384500Y22326500D03*
X23385000Y24132000D03*
X24892000Y22376000D03*
X25689000Y22387000D03*
Y23587000D03*
X26909000Y22387000D03*
X27109000Y22987000D03*
X26909000Y23587000D03*
X29034500Y22577500D03*
X28834500Y23177500D03*
X29034500Y23777500D03*
X29146500Y21883500D03*
X30254500Y22577500D03*
Y23777500D03*
G54D12*
X23384500Y22834500D03*
X23385000Y23624000D03*
X24384000Y22376000D03*
X29654500Y21883500D03*
G54D30*
X27940000Y23050500D03*
Y23251160D03*
X28384500Y23548340D03*
Y23749000D03*
G54D21*
X24100000Y26110000D03*
X24600000D03*
X25360000Y25430000D03*
X25860000D03*
G54D31*
X28007500Y24068000D03*
X27830500Y23973000D03*
Y24163000D03*
X28788500Y24404000D03*
X28611500Y24309000D03*
Y24499000D03*
G54D13*
X23215000Y24840000D03*
X23385000Y25660000D03*
X24225000Y25110000D03*
G54D22*
X25000000Y24370000D03*
X25500000D03*
G54D32*
G01X23384500Y22326500D02*
X23995500D01*
G01X23010000Y25353320D02*
Y25190000D01*
G01X23540000Y26831000D02*
Y26360000D01*
X23670000Y26230000D01*
G01X24951820Y22943820D02*
X25082500D01*
G01Y23050500D02*
X25182500D01*
G01X24605000Y24420000D02*
Y24665000D01*
X24700000Y24760000D01*
G01X26191500Y27530000D02*
Y27277500D01*
G01X27940000Y23050500D02*
Y22606000D01*
X27721000Y22387000D01*
X26909000D01*
G01X27940000Y23349820D02*
Y23495000D01*
X27848000Y23587000D01*
X26909000D01*
G01X26891500Y27530000D02*
X27141500Y27280000D01*
G01X27940000Y23349820D02*
Y23251160D01*
G01X28007500Y24068000D02*
Y23417320D01*
X27940000Y23349820D01*
G01X28788500Y24404000D02*
Y24218500D01*
X28550000Y23980000D01*
X28230000D01*
X28180000Y23930000D01*
Y23610000D01*
X28241660Y23548340D01*
X28384500D01*
G01X27830500Y23973000D02*
X27653000D01*
X27580000Y23900000D01*
G01X27813000Y26543000D02*
Y26733500D01*
X27749500Y26797000D01*
G01X28067000Y26543000D02*
Y26860500D01*
G01X29316000Y26299000D02*
X28641000D01*
X28397000Y26543000D01*
X28067000D01*
G01X29034500Y22577500D02*
X28815500Y22796500D01*
X28638500D01*
X28384500Y23050500D01*
Y23548340D01*
G01X28611500Y24309000D02*
X28602990D01*
X28500000Y24206010D01*
Y24160000D01*
G01X29034500Y23777500D02*
X28547220D01*
X28518720Y23749000D01*
X28384500D01*
G54D23*
X25019000Y26543000D03*
G54D14*
X23465000Y24840000D03*
X23635000Y25660000D03*
X24475000Y25110000D03*
G54D33*
G01X27508000Y24366000D02*
X27366500D01*
Y24340500D01*
G01X27598680Y24172000D02*
Y24301860D01*
X27614680Y24317860D01*
Y24366000D01*
G01X27620500Y24531000D02*
Y24482860D01*
X27614680Y24477040D01*
Y24366000D01*
G01X27492000Y24172000D02*
Y24123860D01*
X27493500Y24122360D01*
Y24086500D01*
X27554990Y24025010D01*
X27684000D01*
X27821990Y24163000D01*
X27830500D01*
G01X28081000Y24637000D02*
X28026000Y24692000D01*
Y25090000D01*
G01X27773320Y24640000D02*
Y25006480D01*
X27772000Y25007800D01*
Y25090000D01*
G01X27620500Y24637680D02*
X27722860D01*
X27725180Y24640000D01*
X27773320D01*
G01X27880000D02*
X27971320D01*
X28081000Y24530320D01*
G54D24*
X25781000Y26543000D03*
X25527000D03*
X25273000D03*
X26543000D03*
X26289000D03*
X26035000D03*
X27305000D03*
X27051000D03*
X26797000D03*
X28067000D03*
X27813000D03*
X27559000D03*
G54D15*
X23010000Y25190000D03*
X22980000Y25710000D03*
X23190000Y25890000D03*
X23500000Y26200000D03*
X23670000Y26230000D03*
X23540000Y28360000D03*
X23995500Y22326500D03*
X24170000Y24710000D03*
X24700000Y24760000D03*
X25400000Y22034500D03*
X26191500Y27277500D03*
X27366500Y24340500D03*
X27141500Y27280000D03*
X27580000Y23900000D03*
X27749500Y26797000D03*
X28067000Y26860500D03*
X27749500Y27495500D03*
X28662500Y21883500D03*
X28500000Y24160000D03*
X28882340Y26215340D03*
X29146500Y26987500D03*
G54D34*
G01X26441500Y27530000D02*
X26526000Y27445500D01*
Y27251770D01*
X26651770Y27126000D01*
X26853770D01*
X26898000Y27081770D01*
Y27013070D01*
X26850000Y26965070D01*
Y26946680D01*
G01X26641500Y27530000D02*
X26570000Y27458500D01*
Y27270000D01*
X26670000Y27170000D01*
X26872000D01*
X26942000Y27100000D01*
Y27013070D01*
X26990000Y26965070D01*
Y26946680D01*
G01Y26840000D02*
X26946000Y26796000D01*
Y26648000D01*
X27051000Y26543000D01*
G01X26850000Y26840000D02*
X26902000Y26788000D01*
Y26648000D01*
X26797000Y26543000D01*
G01X27370000Y26840000D02*
X27410000Y26800000D01*
Y26648000D01*
X27305000Y26543000D01*
G01X29316000Y26749000D02*
X29238000Y26671000D01*
X28689000D01*
X28200000Y27160000D01*
X27469770D01*
X27418000Y27108230D01*
Y27013070D01*
X27370000Y26965070D01*
Y26946680D01*
G01X27510000Y26840000D02*
X27454000Y26784000D01*
Y26648000D01*
X27559000Y26543000D01*
G01X29316000Y26549000D02*
X29238000Y26627000D01*
X28670770D01*
X28181770Y27116000D01*
X27488000D01*
X27462000Y27090000D01*
Y27013070D01*
X27510000Y26965070D01*
Y26946680D01*
G54D25*
X25884500Y27801000D03*
X27198500D03*
X29587000Y25992000D03*
Y27306000D03*
G54D16*
X23010000Y25460000D03*
Y25353320D03*
X25082500Y23050500D03*
Y22943820D03*
X25880000Y27256000D03*
Y27116000D03*
X25986680Y27256000D03*
Y27116000D03*
X27370000Y26840000D03*
Y26946680D03*
X26850000Y26840000D03*
Y26946680D03*
X26990000Y26840000D03*
Y26946680D03*
X27508000Y24366000D03*
X27614680D03*
X27492000Y24172000D03*
X27598680D03*
X27620500Y24531000D03*
Y24637680D03*
X28081000Y24637000D03*
Y24530320D03*
X27880000Y24640000D03*
X27773320D03*
X27510000Y26840000D03*
Y26946680D03*
X27630000Y27776000D03*
X27736680D03*
X27630000Y27616000D03*
X27736680D03*
X28382500Y24531000D03*
X28275820D03*
X28829000Y25971500D03*
Y26078180D03*
X28976320Y27305000D03*
Y27495500D03*
X29019500Y25971500D03*
Y26078180D03*
X29083000Y27305000D03*
Y27495500D03*
G54D35*
G01X23652440Y26230000D02*
X23670000D01*
G01X25880000Y27256000D02*
Y27116000D01*
G01Y27256000D02*
Y27611640D01*
X25884500Y27616140D01*
Y27801000D01*
G01X25986680Y27256000D02*
X26120460D01*
X26141960Y27277500D01*
X26191500D01*
G01X25986680Y27116000D02*
Y27256000D01*
G01X27630000Y27776000D02*
X27408360D01*
X27383360Y27801000D01*
X27198500D01*
G01X28275820Y24531000D02*
X28228820D01*
X28228140Y24530320D01*
X28081000D01*
G01X27736680Y27616000D02*
Y27776000D01*
G01Y27616000D02*
Y27508320D01*
X27749500Y27495500D01*
G01X27630000Y27616000D02*
Y27776000D01*
G01X28382500Y24531000D02*
X28429500D01*
X28461500Y24499000D01*
X28611500D01*
G01X28829000Y26078180D02*
X29019500D01*
G01D02*
X28882340Y26215340D01*
G01X29019500Y25971500D02*
X28829000D01*
G01X29587000Y25992000D02*
X29087000D01*
X29066500Y25971500D01*
X29019500D01*
G01X29316000Y26999000D02*
X29146500D01*
Y26987500D01*
G01X28976320Y27305000D02*
X29019500Y27261820D01*
Y27114500D01*
X29146500Y26987500D01*
G01X28976320Y27305000D02*
Y27495500D01*
G01X29083000Y27305000D02*
X29401140D01*
X29402140Y27306000D01*
X29587000D01*
G01X29083000Y27305000D02*
Y27495500D01*
G54D17*
X23110000Y26060000D03*
X22967760D03*
G54D26*
X26191500Y27530000D03*
X26441500D03*
X26641500D03*
X29316000Y26749000D03*
Y26549000D03*
Y26999000D03*
G54D36*
G01X23385000Y24132000D02*
Y24670000D01*
X23215000Y24840000D01*
G01X24225000Y25110000D02*
X23840000Y24725000D01*
Y24587000D01*
X23385000Y24132000D01*
G01X23215000Y24840000D02*
Y25292880D01*
X23047880Y25460000D01*
X23010000D01*
G01X23110000Y26060000D02*
Y25940000D01*
X23160000Y25890000D01*
X23190000D01*
G01X23385000Y25660000D02*
X23210000D01*
X23010000Y25460000D01*
G01X23286000Y26831000D02*
Y26144000D01*
G01X23159000Y26831000D02*
Y26406000D01*
X22967760Y26214760D01*
Y26060000D01*
G01X23413000Y26831000D02*
Y26287000D01*
X23500000Y26200000D01*
G01X23540000Y27866000D02*
Y28360000D01*
G01X24384000Y22376000D02*
X24951820Y22943820D01*
G01X23794000Y26560000D02*
Y26831000D01*
G01X25182500Y23050500D02*
X25575720Y23443720D01*
Y23473720D01*
X25689000Y23587000D01*
G01X29146500Y21883500D02*
X28662500D01*
G01X29654500D02*
X29796340Y22025340D01*
Y22119340D01*
X30254500Y22577500D01*
G54D27*
X27264000Y25090000D03*
Y25344000D03*
X27010000D03*
X28026000Y25090000D03*
X27772000D03*
X27518000D03*
X27772000Y25344000D03*
X27518000D03*
X28026000D03*
X28788000Y25090000D03*
X28534000D03*
X28280000D03*
X28788000Y25344000D03*
X28534000D03*
X28280000D03*
X29550000Y25090000D03*
X29296000D03*
X29042000D03*
X29550000Y25344000D03*
X29296000D03*
X29042000D03*
X30058000Y25090000D03*
X29804000D03*
X30058000Y25344000D03*
X29804000D03*
G54D18*
X23667000Y26831000D03*
X23540000D03*
X23413000D03*
X23286000D03*
X23159000D03*
X23921000D03*
X23794000D03*
G54D37*
G01X23286000Y26144000D02*
X23427430Y26002570D01*
Y25702430D01*
X23385000Y25660000D01*
G01X25000000Y24370000D02*
Y24082290D01*
X24807700Y23889990D01*
X24350010D01*
X24175000Y24065000D01*
Y24420000D01*
G01D02*
Y24705000D01*
X24170000Y24710000D01*
G01X24600000Y26110000D02*
X24350000Y26360000D01*
X23994000D01*
X23794000Y26560000D01*
G01X24600000Y26110000D02*
X25180000D01*
X25860000Y25430000D01*
G01X25500000Y24370000D02*
X25861300D01*
X26835300Y25344000D01*
G01D02*
X26129100D01*
X26043100Y25430000D01*
X25860000D01*
G01X26835300Y25344000D02*
X27010000D01*
G54D28*
Y25090000D03*
G54D19*
X23540000Y27866000D03*
G54D38*
G01X22967760Y26060000D02*
Y25840420D01*
X22980000Y25828180D01*
Y25710000D01*
G54D29*
X26891500Y27530000D03*
X29316000Y26299000D03*
M02*
