G04 ================== begin FILE IDENTIFICATION RECORD ==================*
G04 Layout Name:  pcb_semaforo_aux.brd*
G04 Film Name:    SAP_V13.SPTOP*
G04 File Format:  Gerber RS274X*
G04 File Origin:  Cadence Allegro 24.1-S005*
G04 Origin Date:  Fri Sep 26 00:04:36 2025*
G04 *
G04 Layer:  VIA CLASS/PASTEMASK_TOP*
G04 Layer:  PIN/PASTEMASK_TOP*
G04 Layer:  DRC ERROR CLASS/PASTEMASK_TOP*
G04 *
G04 Offset:    (0.0000 0.0000)*
G04 Mirror:    No*
G04 Mode:      Positive*
G04 Rotation:  0*
G04 FullContactRelief:  No*
G04 UndefLineWidth:     0.1000*
G04 ================== end FILE IDENTIFICATION RECORD ====================*
%FSLAX25Y25*MOMM*%
%IR0*IPPOS*OFA0.00000B0.00000*MIA0B0*SFA1.00000B1.00000*%
%ADD10R,.5588X.5588*%
%ADD12R,.89X2.7899*%
%ADD15R,3.X3.5001*%
%ADD16R,1.9304X1.2192*%
%ADD14R,2.35X1.5499*%
%ADD17R,.9721X.8019*%
%ADD11R,.8128X.9652*%
%AMMACRO13*
4,1,4,.6302,-.955,
.6302,.955,
-.6299,.955,
-.6299,-.955,
.6302,-.955,
0.0*
%
%ADD13MACRO13*%
%LPD*%
G75*
G54D10*
X23010000Y25460000D03*
Y25353320D03*
X25082500Y23050500D03*
Y22943820D03*
X25880000Y27256000D03*
Y27116000D03*
X25986680Y27256000D03*
Y27116000D03*
X27370000Y26840000D03*
Y26946680D03*
X26850000Y26840000D03*
Y26946680D03*
X26990000Y26840000D03*
Y26946680D03*
X27508000Y24366000D03*
X27614680D03*
X27492000Y24172000D03*
X27598680D03*
X27620500Y24531000D03*
Y24637680D03*
X28081000Y24637000D03*
Y24530320D03*
X27880000Y24640000D03*
X27773320D03*
X27510000Y26840000D03*
Y26946680D03*
X27630000Y27776000D03*
X27736680D03*
X27630000Y27616000D03*
X27736680D03*
X28382500Y24531000D03*
X28275820D03*
X28829000Y25971500D03*
Y26078180D03*
X28976320Y27305000D03*
Y27495500D03*
X29019500Y25971500D03*
Y26078180D03*
X29083000Y27305000D03*
Y27495500D03*
G54D11*
X23110000Y26060000D03*
X22967760D03*
G54D12*
X23667000Y26831000D03*
X23540000D03*
X23413000D03*
X23286000D03*
X23159000D03*
X23921000D03*
X23794000D03*
G54D13*
X23451990Y28036990D03*
G54D14*
X24175000Y24420000D03*
X24605000D03*
G54D15*
X25000000Y24370000D03*
X25500000D03*
G54D16*
X27940000Y23050500D03*
Y23251160D03*
X28384500Y23548340D03*
Y23749000D03*
G54D17*
X28007500Y24068000D03*
X27830500Y23973000D03*
Y24163000D03*
X28788500Y24404000D03*
X28611500Y24309000D03*
Y24499000D03*
M02*
